<?xml version="1.0" encoding="UTF-8"?>
<svg xmlns="http://www.w3.org/2000/svg" xmlns:xlink="http://www.w3.org/1999/xlink" width="50px" height="50px" viewBox="0 0 50 50" version="1.1">
<g id="surface1">
<path style=" stroke:none;fill-rule:nonzero;fill:rgb(100%,100%,100%);fill-opacity:1;" d="M 17.234375 15.097656 L 17.234375 32.644531 L 12.855469 32.640625 L 12.855469 21.773438 L 8.625 26.78125 L 4.480469 21.660156 L 4.441406 32.671875 L 0.00390625 32.671875 L 0 15.097656 L 4.589844 15.097656 L 8.476562 20.398438 L 12.671875 15.097656 Z M 35.210938 19.410156 L 35.261719 32.605469 L 30.335938 32.605469 L 30.320312 26.625 L 24.484375 26.625 C 24.632812 27.664062 24.921875 29.261719 25.355469 30.332031 C 25.675781 31.125 25.976562 31.894531 26.570312 32.679688 L 23.015625 35.023438 C 22.289062 33.699219 21.722656 32.238281 21.1875 30.6875 C 20.652344 29.222656 20.300781 27.699219 20.132812 26.148438 C 19.953125 24.585938 19.929688 23.082031 20.355469 21.539062 C 20.773438 20.039062 21.613281 18.691406 22.773438 17.652344 C 23.425781 17.042969 24.332031 16.609375 25.066406 16.222656 C 25.796875 15.832031 26.613281 15.671875 27.371094 15.472656 C 28.1875 15.277344 29.015625 15.152344 29.851562 15.089844 C 30.679688 15.019531 32.160156 14.953125 34.832031 15.035156 L 35.964844 18.675781 L 30.230469 18.675781 C 28.992188 18.695312 28.398438 18.679688 27.433594 19.113281 C 25.875 19.851562 24.851562 21.390625 24.773438 23.113281 L 30.320312 23.179688 L 30.398438 19.410156 Z M 43.527344 15.035156 L 43.527344 28.839844 L 50 28.910156 L 49.105469 32.605469 L 39.089844 32.605469 L 39.089844 14.972656 Z M 43.527344 15.035156 "/>
</g>
</svg>
